<svg width="29" height="29" viewBox="0 0 29 29" fill="none" xmlns="http://www.w3.org/2000/svg">
<path fill-rule="evenodd" clip-rule="evenodd" d="M0 4C0 1.79086 1.79086 0 4 0H25C27.2091 0 29 1.79086 29 4V25C29 27.2091 27.2091 29 25 29H4C1.79086 29 0 27.2091 0 25V4ZM21.482 21.1786C21.8642 21.1786 22.1953 21.0525 22.4768 20.8033L17.6604 15.9868C17.5448 16.0695 17.4328 16.15 17.327 16.2265C16.9666 16.4921 16.6741 16.6993 16.4494 16.8478C16.2248 16.9966 15.926 17.1483 15.553 17.3032C15.1797 17.4582 14.8319 17.5355 14.5093 17.5355H14.4999H14.4905C14.1678 17.5355 13.8201 17.4583 13.4468 17.3032C13.0736 17.1483 12.7748 16.9966 12.5504 16.8478C12.3258 16.6993 12.0334 16.4921 11.6728 16.2265C11.5723 16.1528 11.4608 16.072 11.3403 15.9855L6.52304 20.8033C6.80449 21.0525 7.13582 21.1786 7.51792 21.1786H21.482ZM6 12.1283C6.27824 12.4383 6.59785 12.7135 6.95825 12.9538C8.30163 13.8667 9.39586 14.6183 10.2451 15.2112L6 19.4563V12.1283ZM22.0514 12.9538C20.7592 13.8283 19.661 14.5812 18.7566 15.2129L23 19.4565V12.1283C22.7279 12.4321 22.4118 12.7071 22.0514 12.9538ZM7.5192 7.82147H21.4833C21.8944 7.82147 22.2502 7.97011 22.5507 8.26724C22.8509 8.56474 23.0013 8.92194 23.0013 9.33938C23.0013 9.83902 22.8461 10.3165 22.5367 10.7717C22.2267 11.227 21.8411 11.6161 21.3794 11.9385C19.8445 13.0039 18.6862 13.8082 17.8997 14.3546C17.4675 14.6547 17.146 14.8782 16.9397 15.0218C16.9091 15.0433 16.8613 15.0773 16.7978 15.1228C16.7295 15.1717 16.643 15.2341 16.5364 15.3112C16.3309 15.4598 16.1601 15.58 16.0242 15.6718C15.8879 15.7634 15.7236 15.8661 15.5308 15.98C15.3377 16.0939 15.156 16.1793 14.9853 16.2362C14.8145 16.293 14.6563 16.3215 14.5109 16.3215H14.5015H14.492C14.3466 16.3215 14.1885 16.293 14.0177 16.2362C13.847 16.1793 13.6651 16.0938 13.4722 15.98C13.2792 15.8661 13.1147 15.7636 12.9789 15.6718C12.8429 15.58 12.6721 15.4598 12.4666 15.3112C12.3599 15.2341 12.2733 15.1718 12.205 15.1227L12.1976 15.1174C12.1378 15.0747 12.0925 15.0423 12.0633 15.0218C11.7985 14.8355 11.4778 14.6111 11.1058 14.352C10.6695 14.0477 10.1618 13.695 9.57789 13.2904C8.49631 12.5411 7.84803 12.0904 7.63306 11.9385C7.24093 11.6729 6.87089 11.3078 6.52314 10.8429C6.17539 10.3779 6.00144 9.94627 6.00144 9.5479C6.00144 9.05472 6.13252 8.64348 6.39512 8.31465C6.6575 7.98597 7.03204 7.82147 7.5192 7.82147Z" fill="#C363E5"/>
</svg>
