<svg width="29" height="29" viewBox="0 0 29 29" fill="none" xmlns="http://www.w3.org/2000/svg">
<path d="M26.1 0H2.9C1.305 0 0 1.305 0 2.9V26.1C0 27.695 1.305 29 2.9 29H26.1C27.695 29 29 27.695 29 26.1V2.9C29 1.305 27.695 0 26.1 0ZM8.7 24.65H4.35V11.6H8.7V24.65ZM6.525 9.135C5.075 9.135 3.915 7.975 3.915 6.525C3.915 5.075 5.075 3.915 6.525 3.915C7.975 3.915 9.135 5.075 9.135 6.525C9.135 7.975 7.975 9.135 6.525 9.135ZM24.65 24.65H20.3V16.965C20.3 15.8051 19.285 14.79 18.125 14.79C16.965 14.79 15.95 15.8051 15.95 16.965V24.65H11.6V11.6H15.95V13.34C16.675 12.18 18.27 11.31 19.575 11.31C22.33 11.31 24.65 13.63 24.65 16.385V24.65Z" fill="#C363E5"/>
</svg>
