<svg width="153" height="28" viewBox="0 0 153 28" fill="none" xmlns="http://www.w3.org/2000/svg">
<g clip-path="url(#clip0)">
<path d="M31.4751 5.7693V2.09204H34.7131V5.7693H31.4751ZM31.4751 20.597V6.53495H34.7131V20.597H31.4751Z" fill="white"/>
<path d="M44.2273 6.17909C44.9963 6.16729 45.7591 6.32266 46.4652 6.63495C47.1713 6.94724 47.8047 7.40934 48.3236 7.99076C48.8776 8.57407 49.3129 9.26442 49.6039 10.0216C49.895 10.7788 50.0361 11.5877 50.0189 12.4013V20.597H46.7756V12.4013C46.8044 11.6434 46.546 10.9035 46.0543 10.3362C45.823 10.0782 45.5418 9.87216 45.2287 9.73123C44.9155 9.5903 44.5772 9.51753 44.2352 9.51753C43.8931 9.51753 43.5548 9.5903 43.2417 9.73123C42.9285 9.87216 42.6474 10.0782 42.4161 10.3362C41.9244 10.9035 41.6659 11.6434 41.6947 12.4013V20.597H38.4356V6.53496H41.6789V6.78837C42.4725 6.39064 43.3438 6.18232 44.2273 6.17909Z" fill="white"/>
<path d="M60.9862 20.419C60.1168 20.6699 59.2 20.6953 58.3185 20.493C57.437 20.2906 56.6186 19.8668 55.937 19.2597C55.2358 18.6751 54.6747 17.9338 54.2969 17.0926C53.919 16.2514 53.7344 15.3327 53.7572 14.407V9.49504H52.0092V6.17904H53.7572V3.36987H56.9953V6.17904H60.2386V9.49504H56.9953V14.3963C56.9703 14.8578 57.0701 15.3174 57.2838 15.7245C57.4975 16.1317 57.8166 16.4706 58.2062 16.704C58.6204 16.9566 59.0796 17.1219 59.557 17.1905C60.0343 17.259 60.5202 17.2292 60.9862 17.103V20.419Z" fill="white"/>
<path d="M78.0295 6.61036H81.2729V20.5969H78.0295V20.1655C77.2382 20.5643 76.3684 20.7727 75.4865 20.7748C74.7174 20.7866 73.9547 20.6312 73.2486 20.319C72.5425 20.0067 71.9091 19.5446 71.3902 18.9631C70.8406 18.3815 70.4087 17.6943 70.1196 16.941C69.8304 16.1878 69.6896 15.3834 69.7053 14.5742V12.4012C69.6896 11.592 69.8304 10.7876 70.1196 10.0344C70.4087 9.2811 70.8406 8.59387 71.3902 8.01225C71.9091 7.43083 72.5425 6.96873 73.2486 6.65644C73.9547 6.34415 74.7174 6.18878 75.4865 6.20058C76.3681 6.20573 77.2372 6.41397 78.0295 6.80986V6.61036ZM73.67 16.6446C73.9022 16.9012 74.1836 17.1059 74.4966 17.2459C74.8096 17.3859 75.1475 17.4582 75.4891 17.4582C75.8307 17.4582 76.1686 17.3859 76.4816 17.2459C76.7947 17.1059 77.0761 16.9012 77.3082 16.6446C77.8017 16.0699 78.06 15.3226 78.0295 14.558V12.4012C78.0556 11.6438 77.7975 10.9048 77.3082 10.3361C77.0769 10.0781 76.7958 9.87208 76.4826 9.73115C76.1695 9.59022 75.8312 9.51744 75.4891 9.51744C75.1471 9.51744 74.8087 9.59022 74.4956 9.73115C74.1825 9.87208 73.9013 10.0781 73.67 10.3361C73.1783 10.9034 72.9199 11.6433 72.9487 12.4012V14.558C72.916 15.323 73.1746 16.0711 73.67 16.6446Z" fill="white"/>
<path d="M92.5877 6.53484H95.8257V21.7992C95.8409 22.6084 95.6998 23.4126 95.4107 24.1658C95.1215 24.919 94.69 25.6062 94.1409 26.1882C93.6208 26.771 92.9857 27.2339 92.2777 27.5463C91.5697 27.8586 90.8049 28.0132 90.0341 27.9999H85.4692V24.6839H90.0341C90.377 24.6918 90.7174 24.6224 91.0312 24.4808C91.3451 24.3392 91.6248 24.1288 91.8505 23.8643C92.3427 23.297 92.6029 22.5576 92.5771 21.7992V20.1817C91.7845 20.5748 90.9148 20.7777 90.0341 20.7748C89.2642 20.7867 88.5007 20.6313 87.7937 20.3191C87.0867 20.0068 86.4524 19.5447 85.9325 18.9631C85.3798 18.3802 84.9457 17.6905 84.6556 16.9343C84.3655 16.178 84.225 15.3703 84.2424 14.5579V12.4012C84.2257 11.5923 84.3655 10.7881 84.6538 10.0348C84.9421 9.2815 85.3731 8.5941 85.922 8.01221C86.4412 7.42537 87.0763 6.95839 87.7853 6.64231C88.4943 6.32623 89.2609 6.16829 90.0341 6.17898C90.9157 6.18413 91.7848 6.39237 92.5771 6.78826L92.5877 6.53484ZM88.2229 16.6446C88.455 16.9012 88.7364 17.1059 89.0495 17.2459C89.3625 17.3859 89.7004 17.4582 90.042 17.4582C90.3835 17.4582 90.7214 17.3859 91.0345 17.2459C91.3475 17.1059 91.6289 16.9012 91.8611 16.6446C92.3584 16.0719 92.6189 15.3237 92.5877 14.5579V12.4012C92.6145 11.6427 92.3542 10.9028 91.8611 10.3361C91.6298 10.0781 91.3486 9.87205 91.0355 9.73112C90.7223 9.59018 90.384 9.51741 90.042 9.51741C89.6999 9.51741 89.3616 9.59018 89.0485 9.73112C88.7353 9.87205 88.4542 10.0781 88.2229 10.3361C87.7336 10.9048 87.4754 11.6437 87.5015 12.4012V14.5579C87.4711 15.3226 87.7294 16.0699 88.2229 16.6446Z" fill="white"/>
<path d="M104.597 20.7749C103.828 20.7867 103.066 20.6313 102.36 20.319C101.653 20.0067 101.02 19.5446 100.501 18.9632C99.9515 18.3816 99.5197 17.6943 99.2305 16.9411C98.9414 16.1878 98.8006 15.3834 98.8163 14.5742V12.4013C98.8006 11.5921 98.9414 10.7877 99.2305 10.0344C99.5197 9.28115 99.9515 8.59392 100.501 8.0123C101.028 7.44031 101.663 6.98458 102.368 6.67309C103.073 6.3616 103.832 6.20093 104.6 6.20093C105.368 6.20093 106.127 6.3616 106.832 6.67309C107.537 6.98458 108.172 7.44031 108.699 8.0123C109.248 8.59418 109.679 9.28158 109.967 10.0349C110.255 10.7881 110.395 11.5924 110.379 12.4013V16.1001H102.407C102.597 16.5269 102.907 16.8861 103.297 17.132C103.687 17.3778 104.14 17.4991 104.597 17.4804H109.162V20.7964L104.597 20.7749ZM102.06 12.7625H107.141V12.4013C107.167 11.6438 106.908 10.9049 106.419 10.3362C106.188 10.0782 105.907 9.87213 105.594 9.7312C105.28 9.59027 104.942 9.51749 104.6 9.51749C104.258 9.51749 103.92 9.59027 103.607 9.7312C103.293 9.87213 103.012 10.0782 102.781 10.3362C102.289 10.9034 102.031 11.6434 102.06 12.4013V12.7625Z" fill="white"/>
<path d="M119.156 6.17906C119.925 6.16753 120.689 6.323 121.396 6.63524C122.103 6.94749 122.737 7.40945 123.257 7.99073C123.809 8.57519 124.241 9.26611 124.529 10.0233C124.818 10.7805 124.956 11.5888 124.937 12.4013V20.5969H121.699V12.4013C121.725 11.6438 121.467 10.9049 120.977 10.3362C120.746 10.078 120.464 9.87191 120.15 9.73093C119.837 9.58994 119.498 9.51714 119.156 9.51714C118.813 9.51714 118.474 9.58994 118.161 9.73093C117.847 9.87191 117.566 10.078 117.334 10.3362C116.845 10.9049 116.586 11.6438 116.613 12.4013V20.5969H113.374V6.53493H116.613V6.78835C117.405 6.39246 118.274 6.18422 119.156 6.17906Z" fill="white"/>
<path d="M127.68 14.558V12.4012C127.663 11.5924 127.803 10.7881 128.091 10.0348C128.38 9.28154 128.811 8.59414 129.359 8.01225C129.879 7.4307 130.514 6.96856 131.221 6.65629C131.928 6.34402 132.691 6.18871 133.461 6.20058C134.47 6.19637 135.461 6.47615 136.325 7.00937C137.207 7.54583 137.934 8.31244 138.431 9.23082L135.762 11.1989C135.624 10.7859 135.384 10.4166 135.065 10.1276C134.746 9.83855 134.359 9.63961 133.941 9.55037C133.524 9.46114 133.092 9.48468 132.686 9.61868C132.281 9.75268 131.916 9.99252 131.629 10.3146C131.136 10.8892 130.881 11.6376 130.918 12.4012V14.558C130.882 15.3215 131.137 16.0694 131.629 16.6446C131.916 16.9655 132.279 17.2047 132.684 17.3388C133.088 17.473 133.519 17.4976 133.936 17.4101C134.352 17.3227 134.739 17.1262 135.059 16.8399C135.379 16.5536 135.621 16.1873 135.762 15.7766L138.473 17.7392C137.978 18.6588 137.25 19.4258 136.367 19.9606C135.504 20.4958 134.513 20.7774 133.503 20.7748C132.733 20.7867 131.97 20.6314 131.263 20.3191C130.556 20.0068 129.921 19.5447 129.402 18.9632C128.843 18.3829 128.403 17.6944 128.108 16.9381C127.812 16.1817 127.667 15.3726 127.68 14.558Z" fill="white"/>
<path d="M149.762 6.53491H153V21.7993C153.016 22.6081 152.876 23.4122 152.588 24.1654C152.3 24.9186 151.869 25.6061 151.32 26.1883C150.801 26.7698 150.166 27.232 149.459 27.5443C148.752 27.8565 147.989 28.0118 147.219 28H142.686V24.684H147.245C147.589 24.6915 147.93 24.6221 148.245 24.4805C148.559 24.339 148.84 24.1287 149.067 23.8644C149.556 23.2954 149.814 22.5567 149.788 21.7993V20.1817C148.997 20.5805 148.127 20.7889 147.245 20.791C146.475 20.8029 145.712 20.6476 145.005 20.3353C144.298 20.0231 143.664 19.5609 143.144 18.9794C142.586 18.3958 142.148 17.7042 141.855 16.9449C141.562 16.1857 141.42 15.3742 141.438 14.558V6.53491H144.676V14.558C144.649 15.3182 144.909 16.0599 145.402 16.6285C145.635 16.8851 145.916 17.0898 146.229 17.2298C146.542 17.3698 146.88 17.4421 147.222 17.4421C147.563 17.4421 147.901 17.3698 148.214 17.2298C148.527 17.0898 148.808 16.8851 149.041 16.6285C149.53 16.0579 149.788 15.3172 149.762 14.558V6.53491Z" fill="white"/>
<path d="M26.5516 7.99061C26.0181 7.41378 25.374 6.95611 24.6596 6.64633C23.9452 6.33654 23.1761 6.18134 22.4003 6.19045C21.6246 6.19957 20.8591 6.3728 20.1518 6.69929C19.4446 7.02577 18.8109 7.49845 18.2905 8.08766C17.7712 7.48297 17.1299 7.00103 16.4108 6.67519C15.6917 6.34935 14.912 6.18739 14.1258 6.20051C13.2458 6.19893 12.3767 6.39978 11.5827 6.78822C11.5252 6.81949 11.4595 6.83112 11.3951 6.82142C11.3307 6.81172 11.271 6.7812 11.2247 6.7343C11.1772 6.6792 11.151 6.60827 11.151 6.5348C11.2003 4.90329 10.654 3.31154 9.61882 2.07033C8.71397 1.11526 7.57302 0.429494 6.31758 0.0861225C6.0905 0.0268506 5.8569 -0.00214583 5.62258 -0.000147487H-0.000606275V4.96577C-0.0116214 5.86252 0.162302 6.75156 0.509793 7.57477C0.857285 8.39797 1.37052 9.13681 2.01595 9.74297C2.11072 9.82924 2.21076 9.91551 2.31606 9.99639C4.86966 12.0561 7.93398 11.3444 8.34466 11.2365V20.5968H11.5827V12.4012C11.5559 11.6426 11.8162 10.9028 12.3093 10.3361C12.5406 10.078 12.8218 9.87201 13.1349 9.73108C13.4481 9.59015 13.7864 9.51737 14.1284 9.51737C14.4705 9.51737 14.8088 9.59015 15.1219 9.73108C15.4351 9.87201 15.7162 10.078 15.9475 10.3361C16.4368 10.9047 16.695 11.6437 16.6689 12.4012V20.5968H19.9069V12.4012C19.8801 11.6426 20.1404 10.9028 20.6335 10.3361C20.8648 10.078 21.146 9.87201 21.4591 9.73108C21.7723 9.59015 22.1106 9.51737 22.4526 9.51737C22.7947 9.51737 23.133 9.59015 23.4461 9.73108C23.7593 9.87201 24.0404 10.078 24.2717 10.3361C24.761 10.9047 25.0192 11.6437 24.9931 12.4012V20.5968H28.2311V12.4012C28.2506 11.5887 28.1122 10.7803 27.8238 10.0232C27.5355 9.26598 27.103 8.57507 26.5516 7.99061ZM7.50223 7.54847L5.53307 7.58622H5.43303C4.9393 7.50589 4.4836 7.26594 4.13254 6.90145C3.94394 6.69887 3.79236 6.46329 3.685 6.2059C3.55587 5.9036 3.49297 5.576 3.50072 5.24614L3.53231 3.47222L5.40144 3.43987C5.50667 3.43519 5.61187 3.4498 5.71208 3.483C6.17245 3.63365 6.58632 3.90504 6.91254 4.27022C7.12034 4.50261 7.28614 4.77099 7.4022 5.06282C7.49273 5.28281 7.53756 5.51968 7.53383 5.75837L7.50223 7.54847Z" fill="#00C2CB"/>
</g>
<defs>
<clipPath id="clip0">
<rect width="153" height="28" fill="white"/>
</clipPath>
</defs>
</svg>
