<svg width="38" height="38" viewBox="0 0 38 38" fill="none" xmlns="http://www.w3.org/2000/svg">
<path d="M34.4375 4.75H3.5625C1.59496 4.75 0 6.34496 0 8.3125V29.6875C0 31.655 1.59496 33.25 3.5625 33.25H34.4375C36.405 33.25 38 31.655 38 29.6875V8.3125C38 6.34496 36.405 4.75 34.4375 4.75ZM33.5825 7.125L19 17.5394L4.4175 7.125H33.5825ZM35.625 29.6875C35.625 30.3434 35.0934 30.875 34.4375 30.875H3.5625C2.90663 30.875 2.375 30.3434 2.375 29.6875V8.58562L18.3113 19.9619C18.7235 20.2554 19.2765 20.2554 19.6887 19.9619L35.625 8.58562V29.6875Z" fill="white"/>
</svg>
