<svg width="29" height="29" viewBox="0 0 29 29" fill="none" xmlns="http://www.w3.org/2000/svg">
<path fill-rule="evenodd" clip-rule="evenodd" d="M0 4C0 1.79077 1.79086 0 4 0H25C27.2091 0 29 1.79077 29 4V25C29 27.2092 27.2091 29 25 29H4C1.79086 29 0 27.2092 0 25V4ZM21.482 21.1787C21.8642 21.1787 22.1953 21.0525 22.4767 20.8032L17.6604 15.9868C17.5448 16.0696 17.4328 16.1499 17.327 16.2266C16.9666 16.4919 16.674 16.6992 16.4494 16.8477C16.2248 16.9966 15.926 17.1482 15.553 17.3032C15.1797 17.4583 14.8319 17.5356 14.5093 17.5356H14.4999H14.4904C14.3208 17.5356 14.1441 17.5142 13.9605 17.4712C13.9196 17.4617 13.8784 17.4512 13.8369 17.4395C13.7835 17.4246 13.7296 17.4077 13.6751 17.3894C13.6001 17.364 13.524 17.3352 13.4468 17.3032C13.0736 17.1482 12.7747 16.9966 12.5504 16.8477C12.3258 16.6992 12.0334 16.4922 11.6728 16.2266L11.5473 16.135L11.3403 15.9856L6.52304 20.8032C6.80447 21.0525 7.13583 21.1787 7.51791 21.1787H21.482ZM6 12.1284C6.27823 12.4382 6.59784 12.7134 6.95825 12.9539L7.43689 13.2795L7.94958 13.6292C8.40945 13.9431 8.83377 14.2341 9.22275 14.5022C9.59598 14.7595 9.93671 14.9958 10.2451 15.2112L6 19.4563V12.1284ZM22.0514 12.9539C20.7592 13.8284 19.661 14.5813 18.7566 15.2129L23 19.4565V12.1284C22.8599 12.2849 22.708 12.4336 22.5445 12.575C22.3905 12.708 22.2261 12.8342 22.0514 12.9539ZM7.5192 7.82153H21.4833C21.8944 7.82153 22.2502 7.97021 22.5507 8.26733C22.8509 8.5647 23.0013 8.92188 23.0013 9.33936C23.0013 9.83911 22.8461 10.3164 22.5367 10.7717C22.2267 11.2271 21.8411 11.616 21.3794 11.9385L17.8997 14.3545L16.9397 15.0217L16.7978 15.1228L16.5364 15.3113C16.3309 15.4597 16.1602 15.5801 16.0242 15.6716C15.8879 15.7634 15.7236 15.8662 15.5308 15.98C15.3377 16.094 15.156 16.1792 14.9853 16.2361C14.8145 16.293 14.6563 16.3215 14.5109 16.3215H14.5015H14.492C14.3466 16.3215 14.1885 16.293 14.0178 16.2361C13.847 16.1792 13.6651 16.0938 13.4722 15.98C13.3849 15.9285 13.3033 15.8794 13.2276 15.8323C13.1361 15.7754 13.0532 15.7219 12.9789 15.6716C12.9144 15.6282 12.8421 15.5784 12.762 15.5222C12.6732 15.4597 12.5747 15.3894 12.4666 15.3113L12.205 15.1226L12.0633 15.0217C11.7985 14.8354 11.4778 14.6111 11.1058 14.3521C10.6695 14.0476 10.1617 13.6951 9.57788 13.2903C8.49631 12.541 7.84802 12.0903 7.63306 11.9385C7.24094 11.6729 6.87088 11.3079 6.52313 10.843C6.17538 10.3779 6.00143 9.94629 6.00143 9.54785C6.00143 9.05469 6.13251 8.64355 6.39511 8.3147C6.6575 7.98608 7.03204 7.82153 7.5192 7.82153Z" fill="white"/>
</svg>
